<svg width="2472" height="495" viewBox="0 0 2472 495" fill="none" xmlns="http://www.w3.org/2000/svg">
<path d="M403.5 55C413.833 57 421.5 60.5 426.5 65.5C431.833 70.5 434.5 76.3333 434.5 83C434.5 94 431.333 102 425 107C419 112 409.333 114 396 113C366 110.667 342.5 109.167 325.5 108.5C308.833 107.5 286.833 106.833 259.5 106.5C247.167 167.833 235.833 229.5 225.5 291.5C221.833 314.167 218 340.5 214 370.5C210 400.167 207.333 424.167 206 442.5C205.333 452.167 201.333 459.667 194 465C186.667 470 177.833 472.5 167.5 472.5C156.5 472.5 148 469.833 142 464.5C136 459.167 133 452.167 133 443.5C133 435.5 134.167 422.333 136.5 404C139.167 385.333 142.167 365.833 145.5 345.5C149.167 325.167 152 307.5 154 292.5C157.667 267.167 161.833 242 166.5 217C171.167 192 175.833 168.333 180.5 146C181.5 141 182.667 135.333 184 129C185.333 122.333 186.833 115 188.5 107C155.833 108 130.167 110.667 111.5 115C92.8333 119.333 79.5 125.5 71.5 133.5C63.8333 141.167 60 151.167 60 163.5C60 174.833 63.3333 185.667 70 196C71.3333 198.333 72 200.833 72 203.5C72 209.833 68.1667 215.833 60.5 221.5C53.1667 226.833 45.5 229.5 37.5 229.5C31.8333 229.5 27.1667 227.833 23.5 224.5C16.8333 218.833 11.3333 210.833 7 200.5C2.66667 189.833 0.5 177.833 0.5 164.5C0.5 136.167 9.66667 113.5 28 96.5C46.6667 79.1667 74.8333 66.5 112.5 58.5C150.5 50.5 199.167 46.5 258.5 46.5C295.167 46.5 324.333 47.1666 346 48.5C368 49.8333 387.167 52 403.5 55ZM375.996 472.5C363.329 472.5 354.329 465.833 348.996 452.5C343.996 439.167 341.496 417.833 341.496 388.5C341.496 345.167 347.663 304 359.996 265C362.996 255.333 367.829 248.333 374.496 244C381.496 239.333 391.163 237 403.496 237C410.163 237 414.829 237.833 417.496 239.5C420.163 241.167 421.496 244.333 421.496 249C421.496 254.333 418.996 266.333 413.996 285C410.663 298.333 407.996 310 405.996 320C403.996 330 402.329 342.333 400.996 357C411.996 328.333 424.329 305 437.996 287C451.663 269 464.996 256.167 477.996 248.5C491.329 240.833 503.496 237 514.496 237C536.163 237 546.996 247.833 546.996 269.5C546.996 273.833 545.496 284.333 542.496 301C539.829 314.333 538.496 322.667 538.496 326C538.496 337.667 542.663 343.5 550.996 343.5C560.329 343.5 572.329 336.167 586.996 321.5C591.329 317.167 595.829 315 600.496 315C604.829 315 608.163 317 610.496 321C613.163 324.667 614.496 329.667 614.496 336C614.496 348.333 611.163 358 604.496 365C595.163 374.667 584.163 383 571.496 390C559.163 396.667 545.996 400 531.996 400C514.329 400 500.829 395.5 491.496 386.5C482.496 377.5 477.996 365.333 477.996 350C477.996 345 478.496 340 479.496 335C480.163 328.333 480.496 323.833 480.496 321.5C480.496 316.167 478.663 313.5 474.996 313.5C469.996 313.5 463.329 319.167 454.996 330.5C446.996 341.5 438.996 356.167 430.996 374.5C422.996 392.833 416.496 412.167 411.496 432.5C407.829 448.167 403.496 458.833 398.496 464.5C393.829 469.833 386.329 472.5 375.996 472.5ZM629.535 472.5C608.868 472.5 592.368 465 580.035 450C567.702 435 561.535 415.333 561.535 391C561.535 364.333 567.702 339.167 580.035 315.5C592.368 291.5 608.702 272.333 629.035 258C649.702 243.333 671.535 236 694.535 236C701.868 236 706.702 237.5 709.035 240.5C711.702 243.167 713.869 248.167 715.535 255.5C722.535 254.167 729.869 253.5 737.535 253.5C753.869 253.5 762.035 259.333 762.035 271C762.035 278 759.535 294.667 754.535 321C746.869 359.333 743.035 386 743.035 401C743.035 406 744.202 410 746.535 413C749.202 416 752.535 417.5 756.535 417.5C762.869 417.5 770.535 413.5 779.535 405.5C788.535 397.167 800.702 383.833 816.035 365.5C820.035 360.833 824.535 358.5 829.535 358.5C833.869 358.5 837.202 360.5 839.535 364.5C842.202 368.5 843.535 374 843.535 381C843.535 394.333 840.369 404.667 834.035 412C820.369 429 805.869 443.333 790.535 455C775.202 466.667 760.369 472.5 746.035 472.5C735.035 472.5 724.869 468.833 715.535 461.5C706.535 453.833 699.702 443.5 695.035 430.5C677.702 458.5 655.868 472.5 629.535 472.5ZM647.535 422C654.868 422 661.868 417.667 668.535 409C675.202 400.333 680.035 388.833 683.035 374.5L701.535 282.5C687.535 282.833 674.535 288.167 662.535 298.5C650.868 308.5 641.535 321.833 634.535 338.5C627.535 355.167 624.035 372.833 624.035 391.5C624.035 401.833 626.035 409.5 630.035 414.5C634.368 419.5 640.202 422 647.535 422ZM1055.28 318C1056.28 317.667 1057.95 317.5 1060.28 317.5C1065.28 317.5 1069.11 319.167 1071.78 322.5C1074.45 325.833 1075.78 330.333 1075.78 336C1075.78 346.333 1073.78 354.5 1069.78 360.5C1065.78 366.167 1059.78 370.333 1051.78 373C1036.45 378 1020.11 380.5 1002.78 380.5C988.115 380.5 974.281 378.5 961.281 374.5C951.615 390.167 940.948 406.333 929.281 423C915.948 442 904.448 455 894.781 462C885.115 469 874.115 472.5 861.781 472.5C848.115 472.5 837.281 467.167 829.281 456.5C821.615 445.833 816.781 429 814.781 406C810.781 359.333 808.781 318.5 808.781 283.5V266C809.115 255 812.115 247.333 817.781 243C823.448 238.667 831.948 236.5 843.281 236.5C851.948 236.5 858.281 238.5 862.281 242.5C866.615 246.167 868.781 252.5 868.781 261.5C868.781 299.833 871.115 349.667 875.781 411C895.781 381.333 910.781 357.667 920.781 340C915.781 330.333 913.281 318.833 913.281 305.5C913.281 294.167 915.781 283.167 920.781 272.5C925.781 261.833 932.615 253.167 941.281 246.5C949.948 239.833 959.781 236.5 970.781 236.5C980.448 236.5 988.281 240 994.281 247C1000.28 253.667 1003.28 263.5 1003.28 276.5C1003.28 291.5 999.281 308.667 991.281 328C1003.95 327.333 1020.78 324.833 1041.78 320.5L1055.28 318ZM1255.39 358.5C1259.72 358.5 1263.06 360.5 1265.39 364.5C1268.06 368.5 1269.39 374 1269.39 381C1269.39 394.333 1266.22 404.667 1259.89 412C1247.56 427 1230.06 440.833 1207.39 453.5C1185.06 466.167 1161.06 472.5 1135.39 472.5C1100.39 472.5 1073.22 463 1053.89 444C1034.56 425 1024.89 399 1024.89 366C1024.89 343 1029.72 321.667 1039.39 302C1049.06 282 1062.39 266.167 1079.39 254.5C1096.72 242.833 1116.22 237 1137.89 237C1157.22 237 1172.72 242.833 1184.39 254.5C1196.06 265.833 1201.89 281.333 1201.89 301C1201.89 324 1193.56 343.833 1176.89 360.5C1160.56 376.833 1132.72 389.833 1093.39 399.5C1101.72 414.833 1117.56 422.5 1140.89 422.5C1155.89 422.5 1172.89 417.333 1191.89 407C1211.22 396.333 1227.89 382.5 1241.89 365.5C1245.89 360.833 1250.39 358.5 1255.39 358.5ZM1129.39 286C1117.06 286 1106.56 293.167 1097.89 307.5C1089.56 321.833 1085.39 339.167 1085.39 359.5V360.5C1105.06 355.833 1120.56 348.833 1131.89 339.5C1143.22 330.167 1148.89 319.333 1148.89 307C1148.89 300.667 1147.06 295.667 1143.39 292C1140.06 288 1135.39 286 1129.39 286ZM1418.18 358.5C1422.51 358.5 1425.85 360.5 1428.18 364.5C1430.85 368.5 1432.18 374 1432.18 381C1432.18 394.333 1429.01 404.667 1422.68 412C1408.35 429.667 1392.68 444.167 1375.68 455.5C1359.01 466.833 1340.01 472.5 1318.68 472.5C1289.35 472.5 1267.51 459.167 1253.18 432.5C1239.18 405.833 1232.18 371.333 1232.18 329C1232.18 288.333 1237.35 242 1247.68 190C1258.35 138 1273.85 93.3333 1294.18 56C1314.85 18.6666 1339.35 -2.86102e-05 1367.68 -2.86102e-05C1383.68 -2.86102e-05 1396.18 7.49997 1405.18 22.5C1414.51 37.1667 1419.18 58.3333 1419.18 86C1419.18 125.667 1408.18 171.667 1386.18 224C1364.18 276.333 1334.35 328.167 1296.68 379.5C1299.01 393.167 1302.85 403 1308.18 409C1313.51 414.667 1320.51 417.5 1329.18 417.5C1342.85 417.5 1354.85 413.667 1365.18 406C1375.51 398 1388.68 384.5 1404.68 365.5C1408.68 360.833 1413.18 358.5 1418.18 358.5ZM1356.68 49.5C1349.01 49.5 1340.35 63.3333 1330.68 91C1321.01 118.667 1312.51 153 1305.18 194C1297.85 235 1293.85 274.333 1293.18 312C1316.85 273 1335.68 234 1349.68 195C1363.68 155.667 1370.68 119.833 1370.68 87.5C1370.68 62.1667 1366.01 49.5 1356.68 49.5ZM1801.77 150C1801.77 178.333 1791.77 202.833 1771.77 223.5C1751.77 243.833 1722.6 258.5 1684.27 267.5C1704.93 273.167 1720.6 282.5 1731.27 295.5C1741.93 308.167 1747.27 322.833 1747.27 339.5C1747.27 365.833 1738.93 388.667 1722.27 408C1705.93 427.333 1681.93 442.333 1650.27 453C1618.6 463.333 1580.43 468.5 1535.77 468.5C1519.1 468.5 1505.77 468 1495.77 467C1495.43 476.333 1491.43 483.333 1483.77 488C1476.1 492.667 1466.27 495 1454.27 495C1442.27 495 1433.93 492.333 1429.27 487C1424.93 481.667 1423.1 473.833 1423.77 463.5C1426.77 416.833 1432.6 368 1441.27 317C1449.93 265.667 1460.93 216.167 1474.27 168.5C1476.6 160.167 1481.27 154.333 1488.27 151C1495.27 147.667 1504.43 146 1515.77 146C1536.1 146 1546.27 151.667 1546.27 163C1546.27 167.667 1545.27 173 1543.27 179C1534.6 205 1525.93 240.333 1517.27 285C1508.6 329.333 1502.43 371.667 1498.77 412C1514.77 413.333 1527.77 414 1537.77 414C1584.43 414 1618.6 407.333 1640.27 394C1662.27 380.333 1673.27 363 1673.27 342C1673.27 327.333 1666.93 315 1654.27 305C1641.93 295 1621.1 289.5 1591.77 288.5C1585.1 288.167 1580.43 286.5 1577.77 283.5C1575.1 280.5 1573.77 275.667 1573.77 269C1573.77 259.333 1575.77 251.5 1579.77 245.5C1583.77 239.5 1591.1 236.333 1601.77 236C1625.43 235.333 1646.77 231.833 1665.77 225.5C1685.1 219.167 1700.27 210.333 1711.27 199C1722.27 187.333 1727.77 173.833 1727.77 158.5C1727.77 139.167 1718.27 124 1699.27 113C1680.27 101.667 1651.1 96 1611.77 96C1576.1 96 1541.6 100.667 1508.27 110C1474.93 119 1446.6 130.5 1423.27 144.5C1412.6 150.833 1403.6 154 1396.27 154C1390.27 154 1385.6 152 1382.27 148C1379.27 143.667 1377.77 138.333 1377.77 132C1377.77 123.667 1379.43 116.5 1382.77 110.5C1386.43 104.5 1394.93 97.6666 1408.27 90C1436.27 74 1469.1 61.5 1506.77 52.5C1544.43 43.5 1582.93 39 1622.27 39C1682.6 39 1727.6 49.1666 1757.27 69.5C1786.93 89.8333 1801.77 116.667 1801.77 150ZM2042.76 316.5C2047.1 316.5 2050.43 318.667 2052.76 323C2055.1 327.333 2056.26 332.833 2056.26 339.5C2056.26 355.5 2051.43 365 2041.76 368C2021.76 375 1999.76 379 1975.76 380C1969.43 408 1956.93 430.5 1938.26 447.5C1919.6 464.167 1898.43 472.5 1874.76 472.5C1854.76 472.5 1837.6 467.667 1823.26 458C1809.26 448.333 1798.6 435.5 1791.26 419.5C1783.93 403.5 1780.26 386.167 1780.26 367.5C1780.26 342.167 1785.1 319.667 1794.76 300C1804.43 280 1817.76 264.5 1834.76 253.5C1851.76 242.167 1870.6 236.5 1891.26 236.5C1916.6 236.5 1936.93 245.333 1952.26 263C1967.93 280.333 1977.1 301.833 1979.76 327.5C1995.43 326.5 2014.1 323.167 2035.76 317.5C2038.43 316.833 2040.76 316.5 2042.76 316.5ZM1878.76 419.5C1889.43 419.5 1898.6 415.167 1906.26 406.5C1914.26 397.833 1919.6 385.333 1922.26 369C1911.93 362 1903.93 352.833 1898.26 341.5C1892.93 330.167 1890.26 318.167 1890.26 305.5C1890.26 300.167 1890.76 294.833 1891.76 289.5H1889.26C1875.93 289.5 1864.76 296 1855.76 309C1847.1 321.667 1842.76 339.667 1842.76 363C1842.76 381.333 1846.26 395.333 1853.26 405C1860.6 414.667 1869.1 419.5 1878.76 419.5ZM2268.35 316.5C2272.68 316.5 2276.01 318.667 2278.35 323C2280.68 327.333 2281.85 332.833 2281.85 339.5C2281.85 355.5 2277.01 365 2267.35 368C2247.35 375 2225.35 379 2201.35 380C2195.01 408 2182.51 430.5 2163.85 447.5C2145.18 464.167 2124.01 472.5 2100.35 472.5C2080.35 472.5 2063.18 467.667 2048.85 458C2034.85 448.333 2024.18 435.5 2016.85 419.5C2009.51 403.5 2005.85 386.167 2005.85 367.5C2005.85 342.167 2010.68 319.667 2020.35 300C2030.01 280 2043.35 264.5 2060.35 253.5C2077.35 242.167 2096.18 236.5 2116.85 236.5C2142.18 236.5 2162.51 245.333 2177.85 263C2193.51 280.333 2202.68 301.833 2205.35 327.5C2221.01 326.5 2239.68 323.167 2261.35 317.5C2264.01 316.833 2266.35 316.5 2268.35 316.5ZM2104.35 419.5C2115.01 419.5 2124.18 415.167 2131.85 406.5C2139.85 397.833 2145.18 385.333 2147.85 369C2137.51 362 2129.51 352.833 2123.85 341.5C2118.51 330.167 2115.85 318.167 2115.85 305.5C2115.85 300.167 2116.35 294.833 2117.35 289.5H2114.85C2101.51 289.5 2090.35 296 2081.35 309C2072.68 321.667 2068.35 339.667 2068.35 363C2068.35 381.333 2071.85 395.333 2078.85 405C2086.18 414.667 2094.68 419.5 2104.35 419.5ZM2451.43 418C2465.1 420.667 2471.93 428.167 2471.93 440.5C2471.93 448.833 2468.1 456.333 2460.43 463C2453.1 469.333 2442.43 472.5 2428.43 472.5C2404.43 472.5 2384.77 465.167 2369.43 450.5C2354.43 435.5 2346.93 416 2346.93 392C2346.93 379 2353.6 369.667 2366.93 364C2381.6 357.667 2392.1 351 2398.43 344C2404.77 336.667 2407.93 327.833 2407.93 317.5C2407.93 311.5 2406.6 307 2403.93 304C2401.6 301 2398.6 299.5 2394.93 299.5C2385.93 299.5 2375.93 306 2364.93 319C2354.27 332 2344.27 348.833 2334.93 369.5C2325.6 389.833 2318.27 410.833 2312.93 432.5C2309.27 448.167 2304.93 458.833 2299.93 464.5C2295.27 469.833 2287.77 472.5 2277.43 472.5C2267.1 472.5 2259.43 468.833 2254.43 461.5C2249.77 453.833 2246.6 442.167 2244.93 426.5C2243.27 410.833 2242.43 387.833 2242.43 357.5C2242.43 306.167 2247.6 252.667 2257.93 197C2268.6 141.333 2284.1 94.6666 2304.43 57C2325.1 19 2349.77 -2.86102e-05 2378.43 -2.86102e-05C2393.77 -2.86102e-05 2406.1 6.66664 2415.43 20C2425.1 33 2429.93 50 2429.93 71C2429.93 104.667 2420.1 139.667 2400.43 176C2380.77 212 2348.77 254.167 2304.43 302.5C2303.43 319.833 2302.93 337.667 2302.93 356C2318.93 314.333 2337.27 284.167 2357.93 265.5C2378.6 246.5 2397.93 237 2415.93 237C2432.6 237 2445.93 242.667 2455.93 254C2466.27 265.333 2471.43 279.333 2471.43 296C2471.43 314.333 2466.77 331.167 2457.43 346.5C2448.1 361.833 2432.1 375.5 2409.43 387.5C2411.43 397.5 2415.43 404.5 2421.43 408.5C2427.77 412.167 2437.77 415.333 2451.43 418ZM2367.93 49.5C2361.93 49.5 2355.27 58.1667 2347.93 75.5C2340.6 92.5 2333.43 115.667 2326.43 145C2319.77 174 2314.27 205.667 2309.93 240C2330.6 215.667 2347.6 189.167 2360.93 160.5C2374.6 131.833 2381.43 105.833 2381.43 82.5C2381.43 71.8333 2380.27 63.6666 2377.93 58C2375.6 52.3333 2372.27 49.5 2367.93 49.5Z" fill="black"/>
</svg>
